Patient4_TMGait_0pt5_01_left_39_EMG.mot
version=1
nRows=20
nColumns=33
inDegrees=no
endheader
time	1LAddLong	2LGlutMax	3LGlutMed	4LIliopsoas	5LSemiMemb	6LBicFemLong	7LRecFem	8LVastMed	9LVastLat	10LGasMed	11LTibAnt	12lTibPost	13LPeroneusLong	14LSol	15LExtDigLong	16LFlexDigLong	17RAddLong	18RGlutMax	19RGlutMed	20RIliopsoas	21RSemiMemb	22RBicFemLong	23RRecFem	24RVastMed	25RVastLat	26RGasMed	27RTibAnt	28RTibPost	29RPeroneusLong	30RSol	31RExtDigLong	32RFlexDigLong
52.885	0.003357	0.11261	-0.18799	0.001984	-0.030823	-0.031128	0.037231	0.000763	-0.032349	0.1503	0.031891	0.026093	-0.027008	-0.081177	-0.037537	0.015717	-0.006104	0.078888	0.54413	-0.042725	0.13886	0.056458	0.041656	-0.027008	0.015106	0.001984	0.024261	-0.009766	0.009155	0.000153	0.000153	-0.007019
52.886	-0.000763	0.090485	-0.092621	0.009155	-0.054626	0.010223	0.035095	0.006866	-0.056915	0.30228	0.016785	-0.006561	-0.029602	-0.13153	-0.03418	-0.018616	-0.02121	0.047302	0.50613	-0.084839	0.19882	0.018463	0.011749	0.040283	0.023041	0.000458	0.029297	-0.006256	-0.009003	0.005646	-0.00824	-0.001678
52.887	-0.007782	0.053101	-0.14603	0.006714	-0.024261	-0.013123	0.031891	0.007935	-0.043488	0.069885	0.016479	-0.010223	-0.033417	-0.11337	-0.021057	-0.009308	-0.02533	0.046082	0.50903	-0.15457	0.13077	0.046082	0.059814	0.015869	-0.026093	0.000763	0.040436	-0.008087	0.016632	-0.026703	-0.001831	-0.007629
52.888	-0.00473	0.051422	-0.17029	0.006104	0.025787	-0.019684	0.012665	0.002136	-0.033875	-0.20294	0.014801	0.009308	-0.026093	-0.048828	-0.023346	-0.01358	-0.032654	0.067749	0.35507	-0.081177	0.06958	0.1416	0.010223	0.032806	-0.0177	-0.004272	0.041809	-0.000153	0.043335	-0.022736	-0.00412	-0.006104
52.889	-0.002136	0.036926	-0.17136	0.01709	-0.020752	0.024719	0.005646	0.003662	-0.017395	-0.35828	0.00946	0.009918	-0.007172	0.055237	-0.021667	0.007019	-0.029755	0.078888	0.027466	0.010376	0.11139	0.10666	0.039063	0.054779	-0.037231	0.001678	0.045776	-0.013733	0.10986	-0.029602	0.000153	-0.00824
52.89	0.001221	0.0354	-0.20721	0.001068	-0.066681	0.083313	-0.010986	0.006104	-0.017395	-0.34927	0.012817	0.000458	-0.002136	0.16815	-0.00412	0.031586	-0.000763	0.096588	0.12894	0.049591	0.089264	0.034485	-0.023956	-0.005341	-0.045929	0.000305	0.035706	-0.005188	0.25513	-0.029755	-0.006561	-0.004883
52.891	-0.001984	0.080566	-0.20279	0.004578	-0.075836	0.21606	-0.012817	0.00473	-0.02655	-0.28946	0.018616	0.001831	-0.025177	0.20538	-0.002441	0.21439	0.046692	0.088196	-0.10025	0.17395	0.069733	0.06485	0.088654	-0.11917	0.004578	-0.001526	0.045319	0.000153	0.29465	-0.013123	-0.003052	-0.00885
52.892	0.000305	0.1059	-0.1831	0.003967	-0.002136	0.14343	-0.004425	0.002289	-0.024109	-0.18692	0.016785	0.010376	-0.035858	0.2272	0.019531	-0.29938	0.042419	0.056305	-0.11139	0.16312	0.081024	0.17609	0.112	-0.060883	0.28885	-0.001831	0.056305	-0.005035	0.13626	-0.011749	-0.003357	-0.010071
52.893	0.010376	0.11887	-0.12909	-0.015259	0.037994	0.056915	-0.0177	-0.003204	-0.029144	-0.22705	0.012665	0.003204	-0.05188	0.24155	0.015106	0.019989	0.026093	-0.012512	-0.10422	-0.006409	0.17975	0.063629	-0.048218	0.019379	0.44403	-0.00061	0.069275	0.001373	-0.54108	-0.056458	-0.005493	-0.004578
52.894	0.010681	0.12039	-0.068665	0.002136	-0.011597	0.026245	0.005341	-0.000916	-0.028381	-0.17639	0.015717	0.011292	-0.017548	0.30182	0.011444	-0.04715	0.041046	-0.035858	-0.068817	-0.031128	0.14755	-0.06897	0.060272	0.000763	0.41565	-0.000916	0.067596	-0.006409	-0.71549	-0.025177	0.007782	-0.010834
52.895	0.011749	0.11856	-0.14175	-0.000916	-0.011597	-0.090637	-0.024719	0.002899	-0.03067	-0.063782	0.022125	0.009308	-0.01358	0.30868	0.02655	0.081329	0.010681	-0.052643	-0.13596	0.08728	0.16098	-0.046082	0.019836	0.048676	0.44052	0.001678	0.092316	-0.007019	-0.289	-0.008698	-0.002747	-0.011902
52.896	0.014191	0.099945	-0.052185	0.003357	-0.003052	-0.074158	-0.018768	0.002136	-0.042114	0.022125	0.00885	0.011749	-0.019226	0.2832	0.033112	0.2063	-0.033875	-0.051575	-0.054779	0.039215	0.30441	-0.038452	0.026245	0.000458	0.29129	0.001068	0.10391	-0.005951	-0.007324	0.011749	-0.002441	-0.012207
52.897	0.006714	0.13046	-0.043488	-0.008392	-0.032349	-0.057526	-0.013885	0	-0.03891	0.074005	0.002441	0.008698	-0.022888	0.23804	0.004578	-0.027313	-0.016785	-0.05722	-0.07309	0.010529	0.30121	-0.076447	-0.037384	0.0383	0.18707	0.005646	0.050812	-0.00351	-0.23392	-0.065002	-0.00473	-0.00885
52.898	0.016479	0.11948	-0.091705	0.015106	0.027771	-0.041962	-0.022278	-0.005951	-0.026245	0.11231	0.005646	0.005798	-0.030975	0.18692	0.019989	0.084076	-0.016327	-0.055084	-0.11353	0.077667	0.28778	-0.042114	-0.13702	0.0914	0.15289	-0.002899	0.006104	-0.001526	-0.19196	-0.045471	-0.003052	-0.009766
52.899	0.014191	0.1152	-0.050354	0.020905	-0.010071	-0.002594	-0.027618	-0.001221	-0.028687	0.13184	0.010223	-0.002899	0.001984	0.22278	0.03891	-1.5353	0.006714	-0.028839	-0.17532	0.035858	0.25101	-0.03952	-0.2063	0.068054	0.15366	-0.000763	-0.057983	-0.006409	0.02655	-0.010071	-0.000763	0.001068
52.9	0.015717	0.14038	-0.070343	0.016174	-0.075684	-0.022736	-0.035858	0.000916	-0.030212	-0.014954	0.004425	-0.008392	0.027924	0.16876	0.024261	0.25146	-0.002441	0.014648	-0.16724	0.054932	0.29373	-0.087585	-0.18799	0.21713	-0.00351	0.001678	-0.018311	-0.006104	-0.023193	-0.029297	-0.003357	-0.000153
52.901	0.015717	0.13168	-0.020752	0.004883	-0.10559	-0.050964	-0.037537	-0.004883	-0.033417	-0.30426	0.005188	0.010681	-0.009613	0.19898	0.016174	1.0526	0.007782	0.05188	-0.1506	0.016479	0.23102	-0.087433	-0.041656	0.19821	-0.20493	0.006714	0.041656	-0.004578	0.15747	-0.056305	0.00473	0.001526
52.902	0.003204	0.11414	0.031891	0.009155	-0.12665	0.005646	-0.039368	-0.008545	-0.039215	-0.42374	-0.010376	0.00885	0.006104	0.16281	0.000763	-0.36331	0.04715	0.045166	-0.089417	-0.042877	0.18707	-0.092926	0.097504	0.14023	-0.28091	0.005951	0.012817	-0.000763	0.1973	-0.098724	-0.004578	0.005035
52.903	0.011902	0.15503	0.007629	0.009003	0.046539	0.011902	-0.037842	-0.007782	-0.036621	-0.0914	-0.006866	0.028992	0.02655	0.13733	-0.006714	-0.15808	0.031128	-0.045319	-0.14755	-0.058899	0.20599	-0.049286	0.11536	0.076752	-0.3183	0.00061	-0.02655	-0.007782	-0.2565	0.003204	-0.000916	0.004272
52.904	0.014801	0.11215	-0.021973	0.013123	0.10559	-0.012512	-0.035248	-0.010223	-0.046387	0.18784	-0.006714	0.048065	0.018616	0.22018	-0.000153	0.5806	0.020142	0.014496	-0.17807	-0.026093	0.24872	-0.017853	0.055084	0.07782	-0.23361	-0.009918	-0.035095	-0.006561	-0.77896	0.066376	-0.002136	0.012207
